<svg id="Layer_2" data-name="Layer 2" xmlns="http://www.w3.org/2000/svg" viewBox="0 0 160 160"><defs><style>.cls-1{fill:#f4f3ff;}.cls-2{fill:#b3b3b3;}.cls-3{fill:#f0ba7d;}.cls-4{fill:#fed298;}.cls-5{fill:#15bdb2;}.cls-6{fill:#21d0c3;}.cls-7{fill:#fff;}.cls-8{fill:#e4e7ea;}.cls-9{fill:#d9dada;}.cls-10{fill:#666;}.cls-11{fill:#0f7986;}.cls-12{fill:#fefefe;}.cls-13{fill:#ebecec;}.cls-14{fill:#4d4d4d;}.cls-15{fill:#076673;}</style></defs><title>docavatar-circle</title><circle class="cls-1" cx="80" cy="80" r="80"/><path class="cls-2" d="M69.47,78h22.3l.12,1.52L81,96,69.29,79.31,69.47,78Z" transform="translate(-0.62 0)"/><path class="cls-3" d="M69.61,73.8l-.19,9.32L53.61,91.77v31.69h53.23V91.77l-14.7-9.14-.8-9.31-21.73.48Z" transform="translate(-0.62 0)"/><path class="cls-4" d="M62.31,46.63a2.43,2.43,0,0,0-3.34-1c-2.44,1,.11,10.83,1,12.2s2.42.51,3,.45c.77,5.87.84,9.91,3.19,12.39s7.32,7.11,10,8.78a28.55,28.55,0,0,0,4.45.67,28.38,28.38,0,0,0,4.45-.67c2.68-1.67,7.78-6.44,10-8.78s2.42-6.52,3.19-12.39c.55.06,2,.93,3-.45s3.48-11.21,1-12.2a2.42,2.42,0,0,0-3.34,1,21.09,21.09,0,0,0-1.87-15.34c-2.93-5.21-9.61-7.92-16.44-8.12-6.83.2-13.51,2.91-16.44,8.12a21.09,21.09,0,0,0-1.87,15.34Z" transform="translate(-0.62 0)"/><path class="cls-5" d="M61.67,85.74l3.78-1.45,3-2.66,10.78,7.94H82l10.78-7.95,6.83,4.12,11.88,19.63L102,155a82.12,82.12,0,0,1-21.42,2.82A83.08,83.08,0,0,1,63,155.92l-16.86-49,15.53-21.2Z" transform="translate(-0.62 0)"/><path class="cls-6" d="M96.12,83.31,91.77,78,82,89.8l8.42,9.35Z" transform="translate(-0.62 0)"/><path class="cls-6" d="M65.12,83.21,69.47,78,79.28,89.8l-8.75,9.26Z" transform="translate(-0.62 0)"/><path class="cls-7" d="M65.12,83.21,36.29,92.59a3.27,3.27,0,0,0-2.15,2.59l-8.47,42.95A80.29,80.29,0,0,0,45,151.64l4.22-13.76a.33.33,0,0,1,.36-.23.34.34,0,0,1,.3.31l.61,16.15A79.53,79.53,0,0,0,80.62,160v-5.36L65.12,83.21Z" transform="translate(-0.62 0)"/><path class="cls-8" d="M65.12,83.21l-3.31,1L53.07,99.15l11,.35-6.78,3.86,23.29,51.28L65.12,83.21Z" transform="translate(-0.62 0)"/><path class="cls-8" d="M96.12,83.31,125,92.59a3.25,3.25,0,0,1,2.15,2.59l8.48,42.95a80.26,80.26,0,0,1-19.32,13.51L112,137.88a.33.33,0,0,0-.36-.23.34.34,0,0,0-.3.31l-.6,16.15A79.62,79.62,0,0,1,80.62,160h0v-5.36l15.5-71.33Z" transform="translate(-0.62 0)"/><path class="cls-7" d="M96.12,83.31l1.83.56,10.22,15.38-11,.34,6.78,3.86L80.62,154.64l15.5-71.33Z" transform="translate(-0.62 0)"/><path class="cls-9" d="M83.89,154.3a1.76,1.76,0,1,0,1.76,1.76A1.76,1.76,0,0,0,83.89,154.3Z" transform="translate(-0.62 0)"/><path class="cls-10" d="M96.83,48.93l1.7-.06.55-1.94,1.59-1.59c1.06-8,1.37-20.31-6.52-20,0,0-.71-9-14.94-7.25s-20.65,11-19.89,18.62.46,8.59.46,8.59l1.6,1.59.24,2.21L63,49.05a35.49,35.49,0,0,1,.88-4.25,14.25,14.25,0,0,0,.3-3.92S81,42,85.54,36.18c2.8-3.57,9.24-9.75,9.57-1.19.09,2.54-.85,6.34,1,9.11s.76,4.83.76,4.83Z" transform="translate(-0.62 0)"/><path class="cls-11" d="M80.62,154.64l4.54-20.91L82.08,92.51l1.68-.71-1.8-2H79.28l-1.85,2,1.73.77-3,41.54,4.46,20.58Z" transform="translate(-0.62 0)"/><path class="cls-7" d="M83.73,154.3a1.6,1.6,0,1,0,1.61,1.6A1.6,1.6,0,0,0,83.73,154.3Z" transform="translate(-0.62 0)"/><path class="cls-12" d="M108.87,127.83a5.73,5.73,0,1,1,6.63-4.67,5.74,5.74,0,0,1-6.63,4.67Z" transform="translate(-0.62 0)"/><path class="cls-11" d="M108.93,127.5a5.4,5.4,0,1,1,6.24-4.4,5.4,5.4,0,0,1-6.24,4.4Z" transform="translate(-0.62 0)"/><path class="cls-13" d="M109.34,125.13a3,3,0,1,1,3.45-2.44,3,3,0,0,1-3.45,2.44Z" transform="translate(-0.62 0)"/><path class="cls-12" d="M109.69,119.55l1.31.23.71-4.09-1.31-.23Z" transform="translate(-0.62 0)"/><path class="cls-6" d="M65.7,129l2.46-.49a3.88,3.88,0,0,0,3-4.56l-2.89-14.58c-1.09-5.51-5.4-8.31-10.32-8.93a18.44,18.44,0,0,0-11.2,2.22c-4.3,2.44-7.19,6.68-6.1,12.19l2.9,14.58a3.84,3.84,0,0,0,1.65,2.47h0a3.87,3.87,0,0,0,2.91.58l2.46-.49-.21-1-2.46.49a2.87,2.87,0,0,1-2.13-.43h0a2.86,2.86,0,0,1-1.21-1.81l-2.89-14.58c-1-5,1.66-8.86,5.59-11.1a17.37,17.37,0,0,1,5.12-1.88,17,17,0,0,1,5.45-.21c4.5.57,8.44,3.12,9.43,8.11l2.89,14.58A2.86,2.86,0,0,1,68,127.46l-2.47.49.21,1Z" transform="translate(-0.62 0)"/><path class="cls-14" d="M69.09,111.5l-.44-2.23c-1.13-5.67-5.56-8.56-10.61-9.2a18.87,18.87,0,0,0-11.41,2.26c-4.43,2.52-7.4,6.87-6.27,12.56l.44,2.22,1.69-.33-.44-2.23c-1-4.83,1.61-8.56,5.42-10.73a16.6,16.6,0,0,1,5-1.84,16.85,16.85,0,0,1,5.34-.21c4.36.55,8.17,3,9.13,7.84l.44,2.22,1.69-.33Z" transform="translate(-0.62 0)"/><path class="cls-15" d="M48.65,132.57l1.32-.26a1.45,1.45,0,1,0-.28-1.43l-1.32.26.28,1.43Z" transform="translate(-0.62 0)"/><path class="cls-15" d="M66.74,129l-1.31.26a1.48,1.48,0,0,1-1.09.95,1.45,1.45,0,1,1,.8-2.38l1.32-.26Z" transform="translate(-0.62 0)"/><path class="cls-10" d="M53,100.17l-.5-2.53-1,.19-1,.2.51,2.56c.38-.11.77-.21,1.16-.29S52.67,100.2,53,100.17Z" transform="translate(-0.62 0)"/><path class="cls-11" d="M50.8,131.17a.44.44,0,0,0,.34-.52.44.44,0,0,0-.86.17.44.44,0,0,0,.52.34Z" transform="translate(-0.62 0)"/><path class="cls-11" d="M63.81,128.58a.45.45,0,0,0,.35-.52.44.44,0,0,0-.52-.34.44.44,0,0,0-.34.51A.45.45,0,0,0,63.81,128.58Z" transform="translate(-0.62 0)"/><path class="cls-12" d="M109.18,125.1a2.83,2.83,0,1,1,3.26-2.31,2.84,2.84,0,0,1-3.26,2.31Z" transform="translate(-0.62 0)"/><path class="cls-14" d="M65.13,84s-15.58.13-13,13.73L50.73,98c-3-15.32,14.33-15.46,14.38-15.46Z" transform="translate(-0.62 0)"/><path class="cls-14" d="M96.13,82.57a14.71,14.71,0,0,1,11.21,5.35c3.69,4.49,6.28,12.74,4.35,27.86l-1.46-.19c1.87-14.63-.55-22.51-4-26.73A13.26,13.26,0,0,0,96.1,84l0-1.47Z" transform="translate(-0.62 0)"/></svg>